<?xml version="1.0" standalone="no"?>
<!DOCTYPE svg PUBLIC "-//W3C//DTD SVG 20010904//EN"
 "http://www.w3.org/TR/2001/REC-SVG-20010904/DTD/svg10.dtd">
<svg version="1.0" xmlns="http://www.w3.org/2000/svg"
 width="153.000000pt" height="153.000000pt" viewBox="0 0 153.000000 153.000000"
 preserveAspectRatio="xMidYMid meet">
<metadata>
Created by potrace 1.14, written by Peter Selinger 2001-2017
</metadata>
<g transform="translate(0.000000,153.000000) scale(0.100000,-0.100000)"
fill="#000000" stroke="none">
<path d="M665 1511 c-16 -5 -51 -12 -77 -16 -26 -3 -53 -12 -60 -19 -7 -7 -39
-24 -71 -39 -32 -14 -70 -35 -85 -45 -15 -11 -40 -22 -57 -26 -35 -9 -65 -33
-65 -53 0 -8 -23 -40 -50 -71 -60 -67 -133 -211 -155 -302 -29 -128 -13 -362
29 -409 9 -10 16 -28 16 -40 0 -87 185 -296 327 -369 77 -40 209 -82 316 -102
44 -8 144 1 166 15 5 3 32 10 60 15 28 5 75 20 104 34 28 13 76 34 104 46 58
26 96 60 98 89 0 10 24 44 52 76 65 73 127 195 154 304 29 113 24 295 -9 355
-11 21 -18 44 -16 51 3 6 -6 38 -20 70 -56 126 -172 253 -297 328 -135 80
-372 135 -464 108z m303 -134 c100 -35 171 -80 245 -154 122 -123 177 -248
185 -421 6 -133 -8 -205 -64 -320 -79 -164 -234 -290 -414 -337 -86 -23 -235
-23 -320 -1 -181 48 -335 174 -414 338 -24 51 -49 118 -55 148 -16 77 -14 225
4 295 58 225 235 406 457 465 106 29 275 23 376 -13z"/>
<path d="M602 1370 c-102 -27 -185 -74 -267 -152 -78 -74 -126 -146 -161 -242
-30 -85 -43 -171 -23 -164 8 3 60 15 117 28 56 13 102 28 102 34 0 6 13 38 28
71 38 79 110 151 192 189 60 29 73 31 170 31 97 0 110 -2 170 -31 36 -17 84
-49 106 -71 l42 -41 108 26 c60 13 111 26 112 28 9 7 -62 96 -120 150 -153
142 -372 197 -576 144z m128 -86 c0 -22 -3 -24 -14 -15 -11 9 -15 9 -19 -1 -3
-7 -6 -2 -6 11 -1 17 3 22 14 17 8 -3 15 -1 15 4 0 6 2 10 5 10 3 0 5 -12 5
-26z m70 17 c0 -5 3 -16 6 -24 4 -12 0 -14 -15 -10 -24 6 -23 5 -15 27 7 17
24 22 24 7z m69 -18 c-7 -10 -14 -19 -15 -21 -1 -1 -4 6 -7 18 -4 15 0 20 15
20 18 0 19 -2 7 -17z m-279 -18 c-12 -14 -7 -19 13 -16 5 1 6 -3 2 -8 -3 -6
-12 -8 -20 -4 -24 8 -17 43 8 43 5 0 4 -7 -3 -15z m333 -5 c-3 -11 -7 -20 -9
-20 -2 0 -4 9 -4 20 0 11 4 20 9 20 5 0 7 -9 4 -20z m77 -21 c0 -25 -33 -22
-38 4 -2 12 3 17 17 17 15 0 21 -6 21 -21z m-456 -28 c-6 -6 -24 19 -24 34 1
6 7 1 15 -9 8 -11 12 -22 9 -25z m517 -24 c-8 -8 -11 -8 -11 2 0 8 -6 11 -15
7 -13 -4 -14 -2 -5 14 10 19 12 19 27 5 12 -12 13 -19 4 -28z m-581 13 c0 -5
8 -7 18 -3 14 5 15 3 4 -8 -10 -11 -15 -10 -29 4 -11 11 -13 17 -5 17 7 0 12
-4 12 -10z m-41 -29 c12 -8 13 -12 1 -26 -12 -14 -15 -14 -28 -1 -8 8 -11 19
-8 25 9 13 16 14 35 2z m691 -8 c0 -14 -20 -39 -20 -25 0 6 -8 12 -17 12 -15
0 -16 2 -3 10 18 12 40 13 40 3z m-745 -59 c0 -22 -26 -26 -33 -4 -5 13 -3 13
11 1 20 -16 23 -1 5 18 -11 11 -10 13 2 9 8 -3 15 -13 15 -24z m781 1 c-1 -26
-10 -32 -21 -15 -4 6 -1 17 5 25 17 20 18 19 16 -10z m-829 -65 c-1 -22 -5
-24 -26 -11 -16 10 -6 31 14 31 8 0 13 -9 12 -20z m-23 -53 c4 4 4 0 0 -10 -7
-19 -29 -23 -39 -7 -10 17 5 33 19 21 7 -6 16 -8 20 -4z m-30 -65 c2 -4 1 -14
-4 -21 -11 -19 -41 -6 -34 14 6 16 29 20 38 7z"/>
<path d="M970 1240 c0 -5 5 -10 10 -10 6 0 10 5 10 10 0 6 -4 10 -10 10 -5 0
-10 -4 -10 -10z"/>
<path d="M410 1166 c0 -2 7 -7 16 -10 8 -3 12 -2 9 4 -6 10 -25 14 -25 6z"/>
<path d="M682 1149 c-63 -12 -141 -55 -193 -106 -55 -53 -119 -173 -93 -173 9
0 627 140 643 146 22 7 -41 67 -105 98 -85 42 -163 53 -252 35z m118 -109 c0
-21 -24 -28 -35 -10 -8 14 3 30 21 30 8 0 14 -9 14 -20z m-80 -20 c0 -21 -24
-28 -35 -10 -8 14 3 30 21 30 8 0 14 -9 14 -20z m-80 -15 c0 -19 -20 -29 -32
-17 -8 8 -7 16 2 26 14 17 30 12 30 -9z"/>
<path d="M716 926 l-578 -131 5 -80 c4 -66 41 -203 59 -220 1 -1 266 57 588
130 l585 132 3 47 c5 69 -52 259 -76 255 -4 -1 -267 -60 -586 -133z m577 65
c8 -8 7 -17 -3 -35 -12 -23 -18 -25 -55 -19 -38 5 -45 3 -59 -19 -13 -20 -14
-31 -6 -54 19 -48 63 -60 95 -24 16 18 20 18 46 4 35 -18 36 -24 7 -52 -73
-67 -189 -49 -225 35 -28 68 1 137 72 169 33 16 110 13 128 -5z m-293 -80 c71
-50 65 -161 -12 -202 -11 -6 -53 -19 -93 -28 l-73 -18 -21 91 c-12 50 -24 105
-27 122 l-6 30 79 16 c86 17 115 15 153 -11z m-281 -58 c39 -157 45 -194 30
-204 -28 -17 -58 -9 -110 32 l-52 42 6 -41 c4 -22 10 -47 13 -56 6 -16 3 -17
-63 -20 -13 -1 -21 20 -39 99 -30 131 -30 132 6 140 26 6 40 0 87 -36 l56 -42
-7 42 c-3 23 -7 47 -9 53 -2 10 30 25 60 27 7 1 17 -16 22 -36z m-302 -69 c30
-19 40 -77 19 -109 -16 -25 -16 -26 14 -52 35 -29 31 -39 -20 -48 -30 -5 -39
-2 -59 19 -33 35 -44 33 -39 -8 3 -31 1 -35 -25 -40 -16 -3 -35 -6 -42 -6 -7
0 -21 43 -35 107 -12 60 -24 113 -27 119 -5 14 131 44 167 37 14 -2 35 -11 47
-19z"/>
<path d="M879 863 c-15 -3 -15 -10 -5 -56 9 -41 16 -53 33 -55 12 -2 31 6 42
17 50 50 2 113 -70 94z"/>
<path d="M304 725 c-9 -23 3 -45 24 -45 25 0 44 23 36 44 -8 20 -53 21 -60 1z"/>
<path d="M1263 716 c-51 -11 -96 -25 -101 -31 -5 -5 -15 -28 -22 -50 -84 -271
-451 -358 -659 -156 l-48 47 -112 -25 -111 -24 20 -35 c77 -130 221 -236 377
-276 77 -20 218 -20 302 -1 166 40 327 167 401 319 58 118 89 258 58 255 -7
-1 -54 -11 -105 -23z m15 -92 c2 -1 -9 -4 -23 -6 -19 -4 -23 -2 -15 7 5 6 6
16 2 21 -4 4 2 2 13 -6 11 -8 21 -15 23 -16z m-23 -44 c8 -13 -5 -13 -25 0
-13 8 -13 10 2 10 9 0 20 -4 23 -10z m-10 -21 c11 -17 0 -20 -21 -4 -17 13
-17 14 -2 15 9 0 20 -5 23 -11z m-24 -52 c-6 -8 -7 -18 -3 -23 4 -4 -1 -2 -10
5 -24 18 -23 31 3 31 17 0 19 -3 10 -13z m-40 -40 c-1 -4 -1 -15 -1 -24 0 -16
-1 -16 -16 -1 -9 9 -13 21 -9 28 7 12 27 10 26 -3z m-791 -48 c0 -21 -20 -25
-38 -7 -9 9 -7 14 6 24 21 15 32 9 32 -17z m761 -6 c8 -9 9 -14 2 -10 -7 4
-14 -1 -18 -13 -5 -17 -10 -19 -21 -9 -18 15 -18 29 1 29 8 0 15 5 15 10 0 14
6 12 21 -7z m-731 -28 c-7 -8 -17 -15 -22 -15 -6 0 -5 7 2 15 7 8 17 15 22 15
6 0 5 -7 -2 -15z m46 -17 c5 -7 3 -8 -5 -4 -8 5 -11 3 -9 -5 1 -8 0 -15 -5
-16 -4 -2 -7 -1 -7 2 0 3 0 12 0 20 0 18 16 20 26 3z m629 -8 c0 -8 -10 -16
-22 -18 -22 -3 -32 16 -16 32 12 11 38 2 38 -14z m-591 -16 c9 -3 16 -11 16
-17 0 -6 -3 -7 -7 -4 -3 4 -12 -1 -19 -11 -11 -15 -12 -14 -11 11 1 15 3 27 4
27 1 0 8 -3 17 -6z m516 -9 c-11 -14 -7 -19 13 -16 4 0 7 -3 7 -9 0 -5 -7 -10
-15 -10 -21 0 -31 30 -14 41 20 13 23 11 9 -6z m-456 -24 c11 -17 -5 -43 -19
-31 -6 5 -15 6 -20 2 -4 -4 -2 3 4 16 12 23 26 28 35 13z m39 -31 c-3 -11 -9
-20 -13 -20 -5 0 -6 9 -3 20 3 11 9 20 13 20 5 0 6 -9 3 -20z m345 -3 c2 -10
-3 -17 -12 -17 -18 0 -29 16 -21 31 9 14 29 6 33 -14z m-290 -15 c2 -14 -2
-22 -12 -22 -19 0 -28 14 -20 35 9 21 28 14 32 -13z m232 -4 c0 -26 -13 -16
-17 13 -2 12 1 18 7 14 5 -3 10 -16 10 -27z m-172 -3 c13 20 13 20 10 0 -2
-11 -11 -21 -21 -23 -13 -3 -17 3 -16 25 1 28 1 28 8 3 7 -24 7 -24 19 -5z
m146 17 c2 -4 1 -14 -3 -21 -6 -9 -10 -7 -14 8 -5 20 7 29 17 13z m-80 -10
c-6 -4 -13 -14 -16 -22 -3 -10 -6 -8 -10 8 -5 18 -2 22 15 22 13 0 17 -3 11
-8z m33 -24 c-3 -7 -5 -2 -5 12 0 14 2 19 5 13 2 -7 2 -19 0 -25z"/>
<path d="M365 431 c-3 -5 -1 -12 5 -16 5 -3 10 1 10 9 0 18 -6 21 -15 7z"/>
<path d="M1060 360 c0 -5 7 -10 16 -10 8 0 12 5 9 10 -3 6 -10 10 -16 10 -5 0
-9 -4 -9 -10z"/>
<path d="M920 280 c0 -5 5 -10 10 -10 6 0 10 5 10 10 0 6 -4 10 -10 10 -5 0
-10 -4 -10 -10z"/>
<path d="M803 611 c-182 -42 -334 -79 -338 -82 -12 -13 97 -98 153 -120 81
-32 204 -31 287 1 84 32 183 132 214 214 12 32 20 60 19 61 -2 1 -152 -32
-335 -74z m127 -76 c0 -8 -4 -15 -10 -15 -5 0 -10 7 -10 15 0 8 5 15 10 15 6
0 10 -7 10 -15z m-50 -10 c0 -8 -4 -15 -10 -15 -5 0 -10 7 -10 15 0 8 5 15 10
15 6 0 10 -7 10 -15z m-50 -15 c0 -5 -4 -10 -9 -10 -6 0 -13 5 -16 10 -3 6 1
10 9 10 9 0 16 -4 16 -10z m-50 -10 c0 -5 -7 -10 -15 -10 -8 0 -15 5 -15 10 0
6 7 10 15 10 8 0 15 -4 15 -10z m-50 -10 c0 -5 -7 -10 -15 -10 -8 0 -15 5 -15
10 0 6 7 10 15 10 8 0 15 -4 15 -10z"/>
</g>
</svg>
